<svg width="342" height="440" viewBox="0 0 342 440" fill="none" xmlns="http://www.w3.org/2000/svg">
<path d="M3.12961 427.262L9.96928 429.153L20.1365 402.219L10.0425 399.428L3.12961 427.262Z" fill="#FFB8B8"/>
<path d="M21.4951 439.499L2.78429e-06 433.557L2.17612 424.794L15.3663 428.441C17.5689 429.05 19.452 430.557 20.6014 432.631C21.7507 434.705 22.0722 437.175 21.4951 439.499V439.499V439.499Z" fill="#2F2E41"/>
<path d="M63.9271 432.4L70.8873 431.088L69.404 402.139L59.1318 404.075L63.9271 432.4Z" fill="#FFB8B8"/>
<path d="M85.4648 435.378L63.5903 439.5L62.0806 430.583L75.5036 428.053C76.6135 427.844 77.7515 427.868 78.8528 428.123C79.954 428.377 80.9969 428.859 81.9219 429.539C82.8469 430.219 83.6358 431.085 84.2437 432.086C84.8516 433.088 85.2666 434.207 85.4648 435.378V435.378V435.378Z" fill="#2F2E41"/>
<path d="M50.2221 219.503C51.9371 219.943 53.3325 221.787 54.1704 223.923C54.9433 226.167 55.4666 228.498 55.7299 230.869C56.3883 235.284 57.0206 240.064 55.6588 244.154C54.0627 248.947 49.8098 251.457 46.1208 250.277C42.4317 249.098 39.4978 244.669 38.4953 239.572C37.5827 234.421 38.1707 229.1 40.1818 224.309C41.2298 221.792 42.6742 219.47 44.5938 218.334C45.5354 217.733 46.6577 217.531 47.7349 217.768C48.8122 218.004 49.7644 218.663 50.4002 219.61" fill="#2F2E41"/>
<path d="M59.926 299.447L73.1767 424.666L62.2328 429.05L42.0482 345.082L13.9467 421.857L1.9675 422.559C1.9675 422.559 18.4035 303.098 30.5843 300.383L59.926 299.447Z" fill="#2F2E41"/>
<path d="M48.7962 235.483C56.619 235.483 62.9606 228.792 62.9606 220.539C62.9606 212.285 56.619 205.594 48.7962 205.594C40.9734 205.594 34.6318 212.285 34.6318 220.539C34.6318 228.792 40.9734 235.483 48.7962 235.483Z" fill="#FFB8B8"/>
<path d="M45.0912 234.125C47.3106 232.774 47.5474 229.515 47.2457 226.831C46.9441 224.146 46.4403 221.153 47.9359 218.958C49.7209 216.339 53.3072 216.286 56.3641 216.201C59.4211 216.115 63.1438 215.171 63.9359 212.055C64.4592 209.996 63.3395 207.786 61.7326 206.493C60.1257 205.201 58.1154 204.629 56.1614 204.086C51.7904 202.871 47.2771 201.646 42.8014 202.314C38.3684 202.975 34.3604 205.451 31.6446 209.207C28.9289 212.962 27.7238 217.695 28.2901 222.381C29.0145 228.375 30.0651 230.992 29.3755 233.635C28.091 238.558 22.5526 241.72 22.4423 246.825C22.356 250.817 25.6986 253.898 28.9599 255.925C31.5468 257.533 34.3387 258.897 37.3198 259.274C40.301 259.65 43.5106 258.93 45.7314 256.798C48.5958 254.048 49.3043 249.454 48.483 245.462C47.6616 241.469 45.5547 237.923 43.4705 234.479" fill="#2F2E41"/>
<path d="M54.8752 241.753L39.5685 239.646C39.5685 239.646 29.5859 252.285 30.2514 274.052C30.9169 295.819 28.5876 302.49 28.5876 302.49L60.5025 303.098C55.8889 296.405 75.1862 257.964 54.8752 241.753Z" fill="#003368"/>
<path d="M63.0978 306.14C62.7787 306.143 62.4603 306.172 62.1455 306.227L42.5635 284.233L44.56 277.212L34.9101 272.648L28.9204 288.095L57.0934 311.74C56.942 313.027 57.1655 314.332 57.7342 315.481C58.3028 316.631 59.1898 317.571 60.277 318.176C61.3642 318.78 62.6003 319.022 63.8206 318.867C65.041 318.713 66.188 318.17 67.1089 317.312C68.0298 316.453 68.6811 315.318 68.9762 314.06C69.2712 312.801 69.196 311.477 68.7606 310.264C68.3252 309.051 67.5502 308.007 66.5386 307.271C65.5271 306.534 64.3269 306.14 63.0978 306.14V306.14Z" fill="#FFB8B8"/>
<path d="M99.8157 250.643C99.7449 250.971 99.6987 251.305 99.6777 251.641L74.904 266.72L68.8825 263.062L62.4631 271.929L75.345 281.616L103.608 258.091C104.761 258.541 106.016 258.61 107.207 258.289C108.398 257.968 109.468 257.273 110.275 256.294C111.081 255.316 111.587 254.102 111.724 252.813C111.861 251.524 111.622 250.222 111.041 249.08C110.459 247.937 109.562 247.009 108.468 246.418C107.374 245.826 106.135 245.601 104.917 245.77C103.698 245.94 102.557 246.497 101.646 247.368C100.735 248.238 100.096 249.38 99.8157 250.643V250.643Z" fill="#FFB8B8"/>
<path d="M43.3959 259.893L62.9023 274.561L71.6267 263.02L52.6646 246.968C51.8488 246.277 50.908 245.769 49.8997 245.476C48.8915 245.182 47.837 245.109 46.801 245.26C45.7649 245.412 44.7691 245.785 43.8745 246.357C42.9799 246.928 42.2054 247.687 41.5983 248.585V248.585C40.4155 250.336 39.9404 252.511 40.2775 254.632C40.6146 256.753 41.7364 258.645 43.3959 259.893Z" fill="#003368"/>
<path d="M39.3658 256.759L30.2961 280.151L42.9407 286.47L53.4125 263.321C53.863 262.325 54.1161 261.242 54.1562 260.14C54.1963 259.037 54.0226 257.937 53.6458 256.908C53.2689 255.878 52.6968 254.941 51.9646 254.153C51.2323 253.365 50.3553 252.743 49.3872 252.325V252.325C48.4533 251.922 47.4532 251.717 46.4441 251.722C45.4351 251.726 44.4367 251.941 43.5061 252.352C42.5756 252.764 41.731 253.365 41.0206 254.121C40.3102 254.877 39.7479 255.774 39.3658 256.759V256.759Z" fill="#003368"/>
<ellipse cx="210.291" cy="387.543" rx="25.7136" ry="27.1642" fill="#D7D7F6"/>
<path d="M322.217 266.956C322.128 266.956 322.072 266.954 322.052 266.952L311.426 266.954V265.293H322.091C322.338 265.302 327.376 265.453 332.017 259.483C338.935 250.586 344.615 228.562 332.395 174.161C315.962 101.012 329.667 36.3886 336.322 11.9998C336.65 10.7932 336.709 9.52227 336.494 8.2875C336.279 7.05272 335.795 5.88792 335.082 4.8851C334.37 3.88228 333.446 3.06894 332.386 2.50933C331.325 1.94972 330.156 1.65919 328.972 1.66068H170.272C169.065 1.6624 167.876 1.96562 166.801 2.54573C165.726 3.12584 164.795 3.96651 164.083 4.99949C161.264 9.10983 157.395 17.0062 154.974 31.2841L153.432 30.9906C155.906 16.4025 159.9 8.27381 162.816 4.02319C163.673 2.7785 164.795 1.76552 166.09 1.06649C167.386 0.367454 168.818 0.00206822 170.272 4.51872e-06H328.972C330.399 -0.00145151 331.808 0.348984 333.086 1.02362C334.364 1.69826 335.476 2.67863 336.335 3.88725C337.194 5.09588 337.776 6.49966 338.035 7.98769C338.294 9.47571 338.223 11.0072 337.828 12.4612C331.207 36.7235 317.573 101.011 333.919 173.777C346.311 228.942 340.354 251.444 333.174 260.607C328.438 266.65 323.221 266.956 322.217 266.956Z" fill="#003368"/>
<path d="M293.428 297.368C293.339 297.368 293.284 297.366 293.264 297.364L282.638 297.366V295.705H293.302C293.551 295.713 298.587 295.865 303.229 289.895C310.146 280.998 315.827 258.974 303.606 204.573C287.174 131.424 300.879 66.8005 307.534 42.4117C307.862 41.2051 307.921 39.9342 307.705 38.6994C307.49 37.4646 307.007 36.2998 306.294 35.297C305.581 34.2942 304.658 33.4809 303.597 32.9213C302.537 32.3617 301.368 32.0711 300.183 32.0726H141.484C140.277 32.0743 139.088 32.3775 138.013 32.9577C136.938 33.5378 136.006 34.3784 135.295 35.4114C132.476 39.5218 128.607 47.4181 126.186 61.696L124.644 61.4025C127.118 46.8144 131.112 38.6857 134.028 34.4351C134.885 33.1904 136.006 32.1774 137.302 31.4784C138.597 30.7794 140.03 30.414 141.484 30.4119H300.183C301.611 30.4105 303.019 30.7609 304.297 31.4356C305.575 32.1102 306.687 33.0906 307.546 34.2992C308.405 35.5078 308.987 36.9116 309.247 38.3996C309.506 39.8876 309.435 41.4191 309.039 42.8731C302.419 67.1354 288.785 131.423 305.131 204.189C317.523 259.354 311.565 281.856 304.386 291.019C299.65 297.062 294.432 297.368 293.428 297.368Z" fill="#003368"/>
<path d="M264.649 327.781C264.56 327.781 264.505 327.779 264.485 327.778L108.312 327.779C106.808 327.781 105.327 327.392 103.998 326.646C102.669 325.901 101.532 324.821 100.688 323.501C99.8436 322.182 99.317 320.663 99.1543 319.078C98.9915 317.493 99.1976 315.89 99.7545 314.409C105.421 299.396 113.051 263.377 100.484 190.822C85.6448 105.147 98.9298 74.1842 105.33 64.8486C106.187 63.6039 107.308 62.5909 108.603 61.8919C109.898 61.1928 111.33 60.8275 112.783 60.8254H271.401C272.828 60.824 274.235 61.1744 275.513 61.849C276.79 62.5237 277.902 63.504 278.76 64.7127C279.619 65.9213 280.2 67.3251 280.459 68.8131C280.718 70.3011 280.647 71.8326 280.252 73.2866C273.635 97.5489 260.008 161.837 276.346 234.602C288.731 289.768 282.777 312.27 275.601 321.432C270.868 327.475 265.653 327.781 264.649 327.781ZM112.783 62.4861C111.577 62.4878 110.388 62.791 109.313 63.3711C108.238 63.9512 107.308 64.7919 106.597 65.8249C100.315 74.9874 87.2946 105.48 102.024 190.522C114.029 259.833 108.207 296.484 101.208 315.026C100.737 316.249 100.56 317.578 100.693 318.892C100.827 320.206 101.267 321.464 101.973 322.553C102.674 323.651 103.618 324.551 104.723 325.173C105.828 325.795 107.061 326.119 108.312 326.118H264.523C264.77 326.131 269.806 326.279 274.445 320.309C281.359 311.412 287.036 289.387 274.822 234.987C258.398 161.837 272.096 97.214 278.748 72.8252C279.076 71.6186 279.134 70.3477 278.919 69.1129C278.704 67.8781 278.221 66.7133 277.508 65.7105C276.796 64.7077 275.873 63.8943 274.813 63.3347C273.753 62.7751 272.585 62.4846 271.401 62.4861H112.783Z" fill="black"/>
<path d="M245.239 135.168H120.269C118.602 135.168 117.002 134.456 115.823 133.188C114.644 131.921 113.981 130.202 113.981 128.409C113.981 126.617 114.644 124.898 115.823 123.63C117.002 122.363 118.602 121.651 120.269 121.651H245.239C246.907 121.651 248.506 122.363 249.685 123.63C250.865 124.898 251.527 126.617 251.527 128.409C251.527 130.202 250.865 131.921 249.685 133.188C248.506 134.456 246.907 135.168 245.239 135.168Z" fill="#949AD7"/>
<path d="M245.551 163.825H120.581C118.914 163.825 117.314 163.113 116.135 161.846C114.956 160.578 114.293 158.859 114.293 157.067C114.293 155.274 114.956 153.555 116.135 152.288C117.314 151.021 118.914 150.309 120.581 150.309H245.551C247.219 150.309 248.818 151.021 249.997 152.288C251.177 153.555 251.839 155.274 251.839 157.067C251.839 158.859 251.177 160.578 249.997 161.846C248.818 163.113 247.219 163.825 245.551 163.825Z" fill="#003368"/>
<path d="M245.239 191.488H120.269C118.602 191.488 117.002 190.776 115.823 189.508C114.644 188.241 113.981 186.522 113.981 184.729C113.981 182.937 114.644 181.218 115.823 179.95C117.002 178.683 118.602 177.971 120.269 177.971H245.239C246.907 177.971 248.506 178.683 249.685 179.95C250.865 181.218 251.527 182.937 251.527 184.729C251.527 186.522 250.865 188.241 249.685 189.508C248.506 190.776 246.907 191.488 245.239 191.488Z" fill="#003368"/>
<path d="M253.818 219.648H129.817C128.162 219.648 126.575 218.936 125.405 217.668C124.235 216.401 123.578 214.682 123.578 212.889C123.578 211.097 124.235 209.378 125.405 208.11C126.575 206.843 128.162 206.131 129.817 206.131H253.818C255.473 206.131 257.06 206.843 258.23 208.11C259.4 209.378 260.057 211.097 260.057 212.889C260.057 214.682 259.4 216.401 258.23 217.668C257.06 218.936 255.473 219.648 253.818 219.648Z" fill="#003368"/>
<path d="M253.818 247.807H129.817C128.162 247.807 126.575 247.095 125.405 245.828C124.235 244.56 123.578 242.841 123.578 241.049C123.578 239.256 124.235 237.537 125.405 236.27C126.575 235.002 128.162 234.29 129.817 234.29H253.818C255.473 234.29 257.06 235.002 258.23 236.27C259.4 237.537 260.057 239.256 260.057 241.049C260.057 242.841 259.4 244.56 258.23 245.828C257.06 247.095 255.473 247.807 253.818 247.807Z" fill="#003368"/>
<path d="M179.14 107.008H120.262C118.596 107.008 116.999 106.296 115.821 105.028C114.643 103.761 113.981 102.042 113.981 100.249C113.981 98.4569 114.643 96.7379 115.821 95.4704C116.999 94.203 118.596 93.4909 120.262 93.4909H179.14C180.805 93.4909 182.403 94.203 183.58 95.4704C184.758 96.7379 185.42 98.4569 185.42 100.249C185.42 102.042 184.758 103.761 183.58 105.028C182.403 106.296 180.805 107.008 179.14 107.008Z" fill="#003368"/>
<path d="M171.733 293.076C173 287.535 178.953 285.718 183.82 285.921C186.895 286.136 189.945 286.634 192.934 287.411C196.061 288.134 199.158 288.989 202.239 289.897C207.889 291.561 213.482 293.574 219.225 294.875C224.007 295.959 229.203 296.594 233.971 295.099C238.555 293.661 242.443 290.132 243.69 285.252C244.865 280.654 243.252 275.626 238.938 273.525C235.004 271.608 230.035 272.583 228.085 276.917C225.887 281.803 228.083 287.132 231.564 290.667C233.543 292.586 235.71 294.287 238.03 295.74C240.386 297.398 243.007 298.611 245.773 299.322C250.314 300.324 255.723 298.848 258.065 294.367C258.585 293.353 258.899 292.239 258.985 291.094C259.123 289.536 256.768 289.546 256.63 291.094C256.233 295.556 251.174 297.646 247.391 297.156C244.837 296.719 242.398 295.742 240.228 294.285C238.133 293.023 236.148 291.576 234.295 289.961C231.086 287.093 228.079 282.373 230.234 277.897C231.988 274.253 236.563 274.289 239.345 276.639C242.714 279.486 242.114 284.652 239.891 288.032C237.431 291.775 232.971 293.344 228.766 293.513C224.196 293.697 219.665 292.614 215.298 291.333C209.872 289.741 204.501 287.96 199.048 286.462C195.953 285.611 192.834 284.844 189.683 284.246C186.704 283.568 183.643 283.349 180.602 283.597C175.688 284.183 170.672 287.138 169.462 292.43C169.114 293.952 171.384 294.601 171.733 293.076L171.733 293.076Z" fill="black"/>
</svg>
